<svg 
 xmlns="http://www.w3.org/2000/svg"
 xmlns:xlink="http://www.w3.org/1999/xlink"
 width="30px" height="27px">
<path fill-rule="evenodd"  fill="rgb(255, 255, 255)"
 d="M27.723,26.094 C27.309,26.333 26.844,26.468 26.370,26.487 C26.332,26.496 26.292,26.499 26.251,26.499 L3.463,26.499 C1.829,26.499 0.500,25.164 0.500,23.524 C0.500,22.910 0.683,22.323 1.031,21.823 L6.569,12.180 C6.578,12.158 6.588,12.136 6.600,12.115 L12.297,2.195 C12.824,1.279 13.806,0.711 14.860,0.711 C15.378,0.711 15.890,0.849 16.340,1.112 C16.799,1.379 17.177,1.764 17.435,2.226 L23.114,12.115 C23.142,12.165 23.169,12.214 23.193,12.263 L28.811,22.047 C29.621,23.464 29.133,25.280 27.723,26.094 ZM27.838,22.604 L22.212,12.806 C22.206,12.796 22.201,12.785 22.195,12.774 C22.179,12.741 22.161,12.707 22.141,12.673 L16.461,2.781 C16.460,2.779 16.459,2.777 16.458,2.775 C16.297,2.487 16.062,2.247 15.776,2.081 C15.497,1.918 15.180,1.832 14.860,1.832 C14.206,1.832 13.596,2.185 13.269,2.754 L7.608,12.612 C7.598,12.636 7.586,12.661 7.572,12.684 L7.570,12.688 L1.991,22.403 C1.982,22.419 1.972,22.434 1.962,22.448 C1.739,22.763 1.621,23.135 1.621,23.524 C1.621,24.546 2.447,25.378 3.463,25.378 L26.144,25.378 C26.179,25.372 26.215,25.368 26.251,25.368 C26.251,25.368 26.252,25.368 26.252,25.368 C26.571,25.368 26.885,25.283 27.162,25.123 C28.039,24.617 28.343,23.486 27.838,22.604 ZM26.241,24.257 L24.501,24.257 C24.191,24.257 23.940,24.006 23.940,23.696 C23.940,23.387 24.191,23.136 24.501,23.136 L26.241,23.136 C26.551,23.136 26.802,23.387 26.802,23.696 C26.802,24.006 26.551,24.257 26.241,24.257 ZM22.890,24.257 L22.877,24.257 C22.568,24.257 22.317,24.006 22.317,23.696 C22.317,23.387 22.568,23.136 22.877,23.136 L22.890,23.136 C23.200,23.136 23.451,23.387 23.451,23.696 C23.451,24.006 23.200,24.257 22.890,24.257 ZM14.852,21.454 C13.925,21.454 13.170,20.700 13.170,19.772 C13.170,18.845 13.925,18.090 14.852,18.090 C15.779,18.090 16.534,18.845 16.534,19.772 C16.534,20.700 15.779,21.454 14.852,21.454 ZM14.852,19.211 C14.543,19.211 14.291,19.463 14.291,19.772 C14.291,20.082 14.543,20.333 14.852,20.333 C15.161,20.333 15.413,20.082 15.413,19.772 C15.413,19.463 15.161,19.211 14.852,19.211 ZM14.852,16.969 C13.925,16.969 13.170,16.215 13.170,15.288 L13.170,10.802 C13.170,9.875 13.925,9.120 14.852,9.120 C15.779,9.120 16.534,9.875 16.534,10.802 L16.534,15.288 C16.534,16.214 15.779,16.969 14.852,16.969 ZM15.413,10.802 C15.413,10.493 15.161,10.242 14.852,10.242 C14.543,10.242 14.291,10.493 14.291,10.802 L14.291,15.288 C14.291,15.597 14.543,15.848 14.852,15.848 L14.852,15.848 C15.161,15.848 15.413,15.597 15.413,15.288 L15.413,10.802 ZM6.827,24.257 L6.814,24.257 C6.504,24.257 6.253,24.006 6.253,23.696 C6.253,23.387 6.504,23.136 6.814,23.136 L6.827,23.136 C7.136,23.136 7.387,23.387 7.387,23.696 C7.387,24.006 7.136,24.257 6.827,24.257 ZM5.203,24.257 L3.463,24.257 C3.153,24.257 2.902,24.006 2.902,23.696 C2.902,23.387 3.153,23.136 3.463,23.136 L5.203,23.136 C5.512,23.136 5.763,23.387 5.763,23.696 C5.763,24.006 5.512,24.257 5.203,24.257 Z"/>
</svg>