<?xml version="1.0" encoding="utf-8"?>
<!-- Generator: Adobe Illustrator 22.1.0, SVG Export Plug-In . SVG Version: 6.00 Build 0)  -->
<svg version="1.1" id="Capa_1" xmlns="http://www.w3.org/2000/svg" xmlns:xlink="http://www.w3.org/1999/xlink" x="0px" y="0px"
	 viewBox="0 0 50.5 226.2" style="fill: #fff; enable-background:new 0 0 50.5 226.2;" xml:space="preserve">
<path d="M25.5,176.2c-13.6,0-25,11.4-25,25s11.4,25,25,25c13.1,0,25-11.4,24.4-24.4C50.5,187.5,39.2,176.2,25.5,176.2z"/>
<path d="M19.3,0.7C7.4,4.1,0,14.9,0,28c0.6,7.9,1.1,15.9,1.7,23.8c1.7,30.1,3.4,59.6,5.1,89.7c0.6,10.2,8.5,17.6,18.7,17.6
	s18.2-7.9,18.7-18.2c0-6.2,0-11.9,0.6-18.2c1.1-19.3,2.3-38.6,3.4-57.9c0.6-12.5,1.7-25,2.3-37.5c0-4.5-0.6-8.5-2.3-12.5
	C43.1,3.6,31.2-2.1,19.3,0.7z"/>
</svg>
