<?xml version="1.0" encoding="utf-8"?>
<!-- Generator: Adobe Illustrator 22.1.0, SVG Export Plug-In . SVG Version: 6.00 Build 0)  -->
<svg version="1.1" id="Слой_1" xmlns="http://www.w3.org/2000/svg" xmlns:xlink="http://www.w3.org/1999/xlink" x="0px" y="0px"
	 viewBox="0 0 22.9 5.5" style="enable-background:new 0 0 22.9 5.5;" xml:space="preserve">
<style type="text/css">
	.st0{fill:#FFFFFF;}
</style>
<path class="st0" d="M17,2.3H4.4C5,1.4,5.3,0.8,5.3,0C4,1.4,2.2,2.1,0,2.7c2.2,0.6,3.9,1.4,5.3,2.7C5.2,4.6,5,4.1,4.4,3.2H17l-4-0.9
	H17z"/>
<path class="st0" d="M5.9,2.3h12.6c-0.6-0.9-0.9-1.5-0.9-2.3c1.4,1.4,3.2,2.1,5.3,2.7c-2.2,0.6-3.9,1.4-5.3,2.7
	c0.1-0.9,0.3-1.4,1-2.3H5.9l4-0.9H5.9z"/>
</svg>
