<svg 
 xmlns="http://www.w3.org/2000/svg"
 xmlns:xlink="http://www.w3.org/1999/xlink"
 width="NaN%" height="NaN%">
<path fill-rule="evenodd"  fill="rgb(113, 113, 113)"
 d="M27.663,21.226 C26.286,22.902 24.402,24.103 22.318,24.643 L22.318,28.924 C22.318,29.156 22.178,29.367 21.962,29.455 C21.891,29.485 21.816,29.499 21.742,29.499 C21.592,29.499 21.445,29.440 21.335,29.330 L16.973,24.969 L10.735,24.969 C5.091,24.969 0.500,20.378 0.500,14.734 C0.500,12.995 0.944,11.277 1.785,9.765 C1.939,9.488 2.290,9.388 2.568,9.543 C2.846,9.697 2.946,10.047 2.791,10.326 C2.046,11.666 1.652,13.190 1.652,14.734 C1.652,19.742 5.727,23.817 10.735,23.817 L17.212,23.817 C17.365,23.817 17.511,23.878 17.619,23.986 L21.166,27.533 L21.166,24.187 C21.166,23.914 21.357,23.679 21.624,23.623 C25.801,22.747 28.833,19.008 28.833,14.734 C28.833,9.725 24.758,5.650 19.750,5.650 L19.024,5.650 C18.706,5.650 18.448,5.392 18.448,5.074 C18.448,4.756 18.706,4.499 19.024,4.499 L19.750,4.499 C25.393,4.499 29.985,9.090 29.985,14.734 C29.985,17.097 29.160,19.403 27.663,21.226 ZM16.509,5.651 C16.358,5.651 16.209,5.589 16.102,5.482 C15.995,5.375 15.933,5.226 15.933,5.074 C15.933,4.923 15.995,4.775 16.102,4.667 C16.209,4.560 16.358,4.499 16.509,4.499 C16.661,4.499 16.809,4.560 16.916,4.667 C17.023,4.775 17.085,4.923 17.085,5.074 C17.085,5.226 17.023,5.375 16.916,5.482 C16.809,5.589 16.661,5.651 16.509,5.651 ZM13.520,8.738 L10.404,8.738 C9.904,8.738 9.497,8.331 9.497,7.831 L9.497,4.834 C9.497,1.038 11.667,0.118 13.487,0.016 C13.645,0.007 13.800,0.063 13.915,0.173 C14.030,0.281 14.095,0.433 14.095,0.590 L14.095,2.314 C14.095,2.612 13.868,2.860 13.572,2.888 C13.275,2.915 12.630,2.973 12.472,4.140 L13.520,4.140 C14.020,4.140 14.427,4.547 14.427,5.047 L14.427,7.831 C14.427,8.331 14.020,8.738 13.520,8.738 ZM13.275,5.291 L11.861,5.291 C11.543,5.291 11.285,5.034 11.285,4.716 C11.285,2.769 12.173,2.076 12.944,1.842 L12.944,1.236 C11.827,1.445 10.649,2.185 10.649,4.834 L10.649,7.587 L13.275,7.587 L13.275,5.291 ZM8.155,10.236 L22.329,10.236 C22.647,10.236 22.905,10.494 22.905,10.812 C22.905,11.130 22.647,11.387 22.329,11.387 L8.155,11.387 C7.837,11.387 7.580,11.130 7.580,10.812 C7.580,10.494 7.837,10.236 8.155,10.236 ZM8.155,13.307 L22.329,13.307 C22.647,13.307 22.905,13.565 22.905,13.883 C22.905,14.201 22.647,14.459 22.329,14.459 L8.155,14.459 C7.837,14.459 7.580,14.201 7.580,13.883 C7.580,13.565 7.837,13.307 8.155,13.307 ZM22.329,19.450 C22.647,19.450 22.905,19.708 22.905,20.026 C22.905,20.344 22.647,20.602 22.329,20.602 L14.774,20.602 C14.456,20.602 14.198,20.344 14.198,20.026 C14.198,19.708 14.456,19.450 14.774,19.450 L22.329,19.450 ZM11.534,19.450 C11.852,19.450 12.110,19.708 12.110,20.026 C12.110,20.344 11.852,20.602 11.534,20.602 L11.525,20.602 C11.207,20.602 10.949,20.344 10.949,20.026 C10.949,19.708 11.207,19.450 11.525,19.450 L11.534,19.450 ZM7.580,16.955 C7.580,16.637 7.837,16.379 8.155,16.379 L22.329,16.379 C22.647,16.379 22.905,16.637 22.905,16.955 C22.905,17.273 22.647,17.530 22.329,17.530 L8.155,17.530 C7.837,17.530 7.580,17.273 7.580,16.955 ZM7.633,8.738 L4.517,8.738 C4.017,8.738 3.610,8.331 3.610,7.831 L3.610,4.834 C3.610,1.038 5.780,0.118 7.600,0.016 C7.758,0.007 7.913,0.063 8.028,0.173 C8.143,0.281 8.208,0.433 8.208,0.590 L8.208,2.314 C8.208,2.612 7.981,2.860 7.684,2.888 C7.387,2.915 6.742,2.973 6.585,4.140 L7.632,4.140 C8.133,4.140 8.540,4.547 8.540,5.047 L8.540,7.831 C8.540,8.331 8.133,8.738 7.633,8.738 ZM7.388,5.291 L5.974,5.291 C5.655,5.291 5.398,5.034 5.398,4.716 C5.398,2.769 6.285,2.076 7.056,1.842 L7.056,1.236 C5.940,1.445 4.761,2.185 4.761,4.834 L4.761,7.587 L7.388,7.587 L7.388,5.291 Z"/>
</svg>