<svg 
 xmlns="http://www.w3.org/2000/svg"
 xmlns:xlink="http://www.w3.org/1999/xlink"
 width="NaN%" height="NaN%">
<path fill-rule="evenodd"  fill="rgb(113, 113, 113)"
 d="M28.271,22.816 L27.695,22.816 L27.695,24.314 C27.695,25.903 26.403,27.195 24.814,27.195 L23.834,27.195 C23.567,28.508 22.403,29.499 21.012,29.499 L3.381,29.499 C1.792,29.499 0.500,28.207 0.500,26.619 L0.500,8.988 C0.500,7.399 1.792,6.107 3.381,6.107 L3.957,6.107 L3.957,5.530 C3.957,4.578 4.732,3.802 5.685,3.802 L7.414,3.802 L7.414,1.728 C7.414,0.775 8.189,-0.001 9.142,-0.001 L19.859,-0.001 C20.813,-0.001 21.588,0.775 21.588,1.728 L21.588,6.107 L24.814,6.107 C26.403,6.107 27.695,7.399 27.695,8.988 L27.695,13.597 C28.966,13.597 30.000,14.631 30.000,15.902 L30.000,21.088 C30.000,22.040 29.225,22.816 28.271,22.816 ZM23.893,26.042 L24.814,26.042 C25.768,26.042 26.543,25.267 26.543,24.314 L26.543,22.816 L23.893,22.816 L23.893,26.042 ZM3.957,7.259 L3.381,7.259 C2.428,7.259 1.652,8.034 1.652,8.988 C1.652,10.026 2.552,10.716 3.504,10.716 L3.957,10.716 L3.957,7.259 ZM5.685,4.954 C5.368,4.954 5.109,5.213 5.109,5.530 L5.109,10.716 L9.719,10.716 L9.719,4.954 L5.685,4.954 ZM20.435,1.728 C20.435,1.410 20.177,1.152 19.859,1.152 L9.142,1.152 C8.825,1.152 8.566,1.410 8.566,1.728 L8.566,3.802 L16.057,3.802 C17.010,3.802 17.785,4.578 17.785,5.530 L17.785,10.716 L20.435,10.716 L20.435,1.728 ZM10.871,4.954 L10.871,10.716 L13.176,10.716 L13.176,4.954 L10.871,4.954 ZM14.328,4.954 L14.328,10.716 L16.633,10.716 L16.633,5.530 C16.633,5.213 16.374,4.954 16.057,4.954 L14.328,4.954 ZM21.012,11.869 L3.504,11.869 C2.814,11.869 2.168,11.641 1.652,11.257 L1.652,26.619 C1.652,27.572 2.428,28.347 3.381,28.347 L21.012,28.347 C21.965,28.347 22.740,27.572 22.740,26.619 L22.740,22.816 L18.707,22.816 C17.754,22.816 16.978,22.040 16.978,21.088 L16.978,18.783 C16.978,17.829 17.754,17.054 18.707,17.054 L22.740,17.054 L22.740,13.597 C22.740,12.644 21.965,11.869 21.012,11.869 ZM26.543,8.988 C26.543,8.034 25.768,7.259 24.814,7.259 L21.588,7.259 L21.588,10.774 C22.901,11.042 23.893,12.206 23.893,13.597 L23.893,17.054 L26.543,17.054 L26.543,8.988 ZM27.695,14.749 L27.695,17.054 C28.332,17.054 28.848,16.538 28.848,15.902 C28.848,15.266 28.331,14.749 27.695,14.749 ZM28.848,17.898 C28.501,18.099 28.106,18.207 27.695,18.207 L18.707,18.207 C18.389,18.207 18.131,18.465 18.131,18.783 L18.131,21.088 C18.131,21.406 18.389,21.664 18.707,21.664 L28.271,21.664 C28.589,21.664 28.848,21.406 28.848,21.088 L28.848,17.898 ZM24.814,20.511 L22.164,20.511 C21.846,20.511 21.588,20.253 21.588,19.935 C21.588,19.617 21.846,19.359 22.164,19.359 L24.814,19.359 C25.133,19.359 25.390,19.617 25.390,19.935 C25.390,20.253 25.133,20.511 24.814,20.511 ZM19.859,20.511 C19.541,20.511 19.283,20.253 19.283,19.935 C19.283,19.617 19.541,19.359 19.859,19.359 C20.177,19.359 20.435,19.617 20.435,19.935 C20.435,20.253 20.177,20.511 19.859,20.511 ZM12.023,18.783 C12.977,18.783 13.752,19.558 13.752,20.511 C13.752,21.262 13.270,21.902 12.599,22.140 L12.599,22.816 C12.599,23.134 12.342,23.392 12.023,23.392 C11.705,23.392 11.447,23.134 11.447,22.816 L11.447,22.143 C11.063,22.014 10.701,21.760 10.393,21.393 C10.188,21.149 10.220,20.786 10.463,20.581 C10.707,20.376 11.070,20.408 11.275,20.652 C11.511,20.933 11.777,21.088 12.023,21.088 C12.341,21.088 12.599,20.829 12.599,20.511 C12.599,20.194 12.341,19.935 12.023,19.935 C11.070,19.935 10.295,19.160 10.295,18.207 C10.295,17.456 10.777,16.815 11.447,16.577 L11.447,15.902 C11.447,15.584 11.705,15.325 12.023,15.325 C12.342,15.325 12.599,15.584 12.599,15.902 L12.599,16.573 C12.863,16.660 13.156,16.821 13.448,17.104 C13.676,17.325 13.683,17.689 13.461,17.918 C13.240,18.147 12.875,18.153 12.647,17.932 C12.443,17.735 12.227,17.630 12.023,17.630 C11.706,17.630 11.447,17.889 11.447,18.207 C11.447,18.525 11.706,18.783 12.023,18.783 ZM7.414,9.564 C7.096,9.564 6.838,9.306 6.838,8.988 L6.838,6.683 C6.838,6.365 7.096,6.107 7.414,6.107 C7.732,6.107 7.990,6.365 7.990,6.683 L7.990,8.988 C7.990,9.306 7.732,9.564 7.414,9.564 Z"/>
</svg>