<svg 
 xmlns="http://www.w3.org/2000/svg"
 xmlns:xlink="http://www.w3.org/1999/xlink"
 width="NaN%" height="NaN%">
<path fill-rule="evenodd"  fill="rgb(120, 120, 120)"
 d="M25.354,12.278 C25.034,13.647 24.245,14.866 23.143,15.721 C24.245,16.575 25.034,17.794 25.354,19.164 L26.176,22.690 C26.245,22.987 26.072,23.285 25.781,23.374 L22.316,24.425 C21.739,24.601 21.142,24.687 20.548,24.687 C19.755,24.687 18.966,24.534 18.229,24.233 C18.039,25.614 17.379,26.907 16.352,27.869 L13.709,30.344 C13.598,30.448 13.456,30.499 13.315,30.499 C13.173,30.499 13.031,30.448 12.920,30.344 L10.277,27.869 C9.251,26.907 8.590,25.614 8.401,24.233 C7.663,24.533 6.874,24.687 6.082,24.687 C5.487,24.687 4.890,24.601 4.313,24.425 L0.848,23.374 C0.557,23.285 0.385,22.987 0.454,22.690 L1.276,19.164 C1.595,17.794 2.385,16.575 3.486,15.721 C2.385,14.866 1.595,13.647 1.276,12.278 L0.454,8.751 C0.385,8.455 0.557,8.156 0.848,8.068 L1.835,7.769 C2.140,7.676 2.462,7.848 2.555,8.153 C2.647,8.458 2.475,8.781 2.170,8.874 L1.701,9.015 L2.400,12.016 C2.692,13.270 3.471,14.367 4.550,15.060 C5.687,14.508 6.977,14.317 8.228,14.525 L10.841,14.960 L10.300,14.648 C10.024,14.488 9.929,14.135 10.089,13.859 C10.248,13.583 10.601,13.489 10.877,13.648 L11.422,13.962 L9.736,11.914 C8.929,10.933 8.450,9.722 8.360,8.461 C7.784,8.163 7.145,7.979 6.499,7.925 C6.181,7.898 5.945,7.619 5.972,7.301 C5.998,6.984 6.278,6.747 6.595,6.775 C7.213,6.826 7.825,6.974 8.400,7.209 C8.590,5.828 9.250,4.535 10.277,3.573 L12.920,1.098 C13.142,0.890 13.487,0.890 13.709,1.098 L16.352,3.573 C17.379,4.535 18.039,5.828 18.229,7.209 C19.520,6.682 20.970,6.607 22.316,7.016 L25.781,8.068 C26.072,8.156 26.245,8.455 26.175,8.751 L25.354,12.278 ZM21.981,23.321 L24.928,22.426 L24.229,19.426 C23.920,18.097 23.064,16.944 21.882,16.260 C20.889,15.687 19.720,15.476 18.591,15.664 L15.315,16.209 L16.329,16.794 C16.605,16.954 16.700,17.307 16.541,17.583 C16.434,17.768 16.240,17.872 16.040,17.872 C15.942,17.872 15.843,17.847 15.752,17.794 L14.738,17.209 L15.903,20.319 C16.305,21.391 17.073,22.298 18.065,22.870 C19.247,23.553 20.674,23.717 21.981,23.321 ZM11.066,27.026 L13.315,29.131 L15.563,27.026 C16.503,26.146 17.064,24.923 17.125,23.641 C16.078,22.934 15.268,21.912 14.822,20.723 L13.892,18.242 L13.892,19.493 C13.892,19.811 13.633,20.070 13.315,20.070 C12.996,20.070 12.737,19.811 12.737,19.493 L12.737,18.242 L11.807,20.723 C11.362,21.912 10.551,22.934 9.504,23.641 C9.565,24.923 10.126,26.146 11.066,27.026 ZM14.054,15.721 C14.054,15.590 14.020,15.468 13.960,15.361 C13.958,15.358 13.956,15.356 13.954,15.352 C13.953,15.351 13.953,15.349 13.951,15.347 C13.824,15.131 13.591,14.985 13.323,14.982 C13.320,14.982 13.317,14.982 13.315,14.982 C13.312,14.982 13.309,14.982 13.306,14.982 C13.039,14.985 12.805,15.131 12.678,15.347 C12.677,15.349 12.676,15.351 12.675,15.352 C12.673,15.356 12.671,15.358 12.669,15.361 C12.610,15.468 12.575,15.590 12.575,15.721 C12.575,15.856 12.612,15.981 12.675,16.090 C12.675,16.090 12.675,16.090 12.675,16.090 C12.675,16.090 12.675,16.090 12.675,16.090 C12.803,16.311 13.042,16.460 13.315,16.460 C13.588,16.460 13.826,16.311 13.954,16.090 C13.954,16.090 13.954,16.090 13.954,16.090 C14.017,15.981 14.054,15.856 14.054,15.721 ZM10.300,16.794 L11.314,16.209 L8.039,15.664 C6.909,15.476 5.740,15.688 4.748,16.260 C3.566,16.943 2.710,18.097 2.400,19.426 L1.701,22.426 L4.648,23.321 C5.955,23.717 7.382,23.553 8.564,22.870 C9.556,22.298 10.324,21.391 10.726,20.319 L11.891,17.209 L10.877,17.794 C10.786,17.847 10.687,17.872 10.589,17.872 C10.389,17.872 10.195,17.768 10.089,17.583 C9.929,17.307 10.024,16.954 10.300,16.794 ZM15.563,4.416 L13.315,2.310 L11.066,4.416 C10.070,5.349 9.498,6.666 9.498,8.032 C9.498,9.178 9.899,10.296 10.627,11.180 L12.737,13.744 L12.737,12.574 C12.737,12.255 12.996,11.996 13.315,11.996 C13.633,11.996 13.892,12.255 13.892,12.574 L13.892,13.744 L16.002,11.180 C16.730,10.296 17.131,9.178 17.131,8.032 C17.131,6.666 16.559,5.349 15.563,4.416 ZM21.981,8.121 C20.749,7.748 19.409,7.873 18.269,8.460 C18.180,9.722 17.700,10.933 16.893,11.914 L15.208,13.962 L15.752,13.647 C16.028,13.489 16.381,13.583 16.541,13.859 C16.700,14.135 16.606,14.488 16.329,14.647 L15.788,14.960 L18.401,14.525 C19.653,14.317 20.943,14.508 22.079,15.060 C23.159,14.367 23.937,13.269 24.229,12.016 L24.928,9.015 L21.981,8.121 ZM13.307,21.225 C13.460,21.225 13.608,21.287 13.715,21.394 C13.823,21.501 13.884,21.650 13.884,21.802 C13.884,21.954 13.823,22.103 13.715,22.210 C13.608,22.318 13.459,22.379 13.307,22.379 C13.155,22.379 13.007,22.318 12.899,22.210 C12.792,22.103 12.730,21.954 12.730,21.802 C12.730,21.650 12.792,21.501 12.899,21.394 C13.006,21.287 13.155,21.225 13.307,21.225 ZM4.209,8.228 C4.058,8.228 3.909,8.167 3.801,8.059 C3.694,7.952 3.632,7.803 3.632,7.651 C3.632,7.499 3.694,7.350 3.801,7.243 C3.909,7.136 4.058,7.074 4.209,7.074 C4.361,7.074 4.510,7.136 4.618,7.243 C4.725,7.350 4.787,7.499 4.787,7.651 C4.787,7.803 4.725,7.952 4.618,8.059 C4.510,8.167 4.361,8.228 4.209,8.228 Z"/>
</svg>