<?xml version="1.0" encoding="utf-8"?>
<!-- Generator: Adobe Illustrator 22.1.0, SVG Export Plug-In . SVG Version: 6.00 Build 0)  -->
<svg version="1.1" id="Слой_1" xmlns="http://www.w3.org/2000/svg" xmlns:xlink="http://www.w3.org/1999/xlink" x="0px" y="0px"
	 viewBox="0 0 75.5 53.3" style="enable-background:new 0 0 75.5 53.3;" xml:space="preserve">
<style type="text/css">
	.st0{fill:#A6A8AA;}
</style>
<path class="st0" d="M58,32.9c0.2,0.3,0.3,0.3,0.4,0.4c3.1,4.3,6.2,8.6,9.3,12.9c1.5,2,2.9,4.1,4.4,6.1c0.6,0.8,1.7,1.1,2.6,0.8
	c0.9-0.3,0.9-1.1,0.9-1.8c0-7.3,0-14.7,0-22v-1h-2.9v19.5c-0.2-0.2-0.3-0.4-0.4-0.5c-3.5-4.8-7-9.6-10.5-14.4c-1-1.4-2-2.7-3-4
	c-0.6-0.8-1.8-1-2.7-0.7c-1,0.3-0.9,1.1-0.9,1.9c0,7.3,0,14.6,0,22v0.9H58V32.9z M25.6,52.9V41.6c3.6,3.9,7,7.6,10.4,11.3h3.9
	c-3.8-4.1-7.5-8.1-11.2-12.2c3.6-4.2,7.1-8.3,10.7-12.5h-3.5c-3.3,3.9-6.7,7.9-10.1,11.9c-0.1,0-0.1,0-0.2-0.1V28.2h-3v24.7H25.6z
	 M16.3,30.1c-3-2.6-8.8-3.1-12.2-1.2c-3.9,2.3-4.3,7.7-0.7,10.3c1.1,0.8,2.5,1.4,3.8,1.9c1.8,0.8,3.6,1.3,5.3,2.2
	c1.6,0.8,2,2.3,1.5,4c-0.4,1.3-1.2,2.1-2.4,2.6c-3,1.3-5.7,0.8-8.3-1.1c-0.5-0.4-1-0.8-1.5-1.3c-0.7,0.6-1.3,1.2-2,1.8
	c1.7,2.3,4,3.4,6.7,3.8c3,0.4,5.8,0,8.2-2c3-2.3,3.6-7.9-0.6-10.3c-1-0.6-2-1-3.1-1.4c-1.8-0.8-3.8-1.3-5.5-2.3
	c-2.5-1.4-2.3-4.8,0.2-6.2c1.5-0.8,3.2-1,4.8-0.6c1.4,0.4,2.8,1,4.2,1.6C15.3,31.4,15.8,30.8,16.3,30.1z M45,52.9h2.9V28.2H45V52.9z
	"/>
<path class="st0" d="M3.3,6.5c0.1,0,0.1,0,0.2-0.1c2.4,4.6,4.8,9.3,7.2,13.9h2.9c2.4-4.7,4.8-9.3,7.1-14c0.1,0,0.1,0,0.2,0v18.4h3.3
	v-1c0-7.2,0-14.5,0-21.7c0-1.7-0.6-2.3-2.3-2.1c-0.9,0.1-1.4,0.7-1.8,1.5c-2.3,4.4-4.5,8.8-6.8,13.2c-0.4,0.7-0.7,1.4-1.1,2.1
	c-0.1-0.1-0.2-0.2-0.2-0.3C10,12.9,8.1,9.1,6.1,5.3C5.4,3.8,4.7,2.4,3.9,1C3.4,0.1,2.3-0.2,1.2,0.1C0.3,0.4,0.1,0.8,0.1,2.1
	c0,7.3,0,14.6,0,21.9v0.9h3.2V6.5z M75.5,24.9c-3.6-4.2-7.1-8.2-10.6-12.2c3.3-4.1,6.6-8.2,10-12.4H71c-3.1,3.9-6.2,7.8-9.3,11.7
	c-0.1,0-0.1,0-0.2-0.1V0.3h-3.2v24.6h3.3V13.8c3.3,3.8,6.5,7.5,9.6,11.1H75.5z M43,21.9V0.3h-3.2c0,0.3,0,0.5,0,0.8
	c0,7.3,0,14.6,0,21.9c0,1.5,0.5,2,1.9,2c4,0,8.1,0,12.1,0c0.3,0,0.5,0,0.8,0v-3H43z M30.4,24.9h3.2V0.3h-3.2V24.9z"/>
<path class="st0" d="M3.3,6.5v18.4H0.1V24c0-7.3,0-14.6,0-21.9c0-1.2,0.3-1.7,1.1-1.9c1.1-0.3,2.2,0,2.7,0.9
	c0.8,1.4,1.5,2.8,2.2,4.2c2,3.8,3.9,7.6,5.8,11.4c0,0.1,0.1,0.1,0.2,0.3c0.4-0.7,0.8-1.4,1.1-2.1c2.3-4.4,4.5-8.8,6.8-13.2
	c0.4-0.8,0.8-1.4,1.8-1.5c1.7-0.1,2.3,0.4,2.3,2.1c0,7.2,0,14.5,0,21.7v1h-3.3V6.5c-0.1,0-0.1,0-0.2,0c-2.4,4.7-4.8,9.3-7.1,14h-2.9
	c-2.4-4.6-4.8-9.3-7.2-13.9C3.4,6.5,3.3,6.5,3.3,6.5"/>
<path class="st0" d="M75.5,24.9h-4.3c-3.1-3.6-6.3-7.3-9.6-11.1v11.1h-3.3V0.3h3.2v11.6c0.1,0,0.1,0.1,0.2,0.1
	c3.1-3.9,6.2-7.8,9.3-11.7h3.8c-3.4,4.2-6.7,8.3-10,12.4C68.4,16.7,71.8,20.8,75.5,24.9"/>
<path class="st0" d="M43,21.9h11.5v3c-0.3,0-0.5,0-0.8,0c-4,0-8.1,0-12.1,0c-1.4,0-1.9-0.5-1.9-2c0-7.3,0-14.6,0-21.9
	c0-0.2,0-0.5,0-0.8H43V21.9z"/>
<rect x="30.4" y="0.3" class="st0" width="3.2" height="24.6"/>
</svg>
