<svg 
 xmlns="http://www.w3.org/2000/svg"
 xmlns:xlink="http://www.w3.org/1999/xlink"
 width="NaN%" height="NaN%">
<path fill-rule="evenodd"  fill="#fff"
 d="M2581.164,70.568 C2310.542,85.657 2079.787,83.433 1809.461,63.131 C1633.194,49.892 1482.610,48.441 1306.160,58.280 C1038.018,73.222 819.499,71.116 551.739,51.010 C373.502,37.618 253.034,36.457 74.446,46.410 L0.946,37.140 C217.934,25.049 400.139,26.231 625.447,43.158 C837.840,59.111 994.699,62.273 1232.661,49.010 C1458.253,36.428 1667.865,39.112 1883.169,55.279 C2104.200,71.883 2277.712,74.122 2507.669,61.298 C2733.388,48.717 2880.850,50.138 3106.158,67.066 L3032.449,74.918 C2851.306,61.304 2762.668,60.449 2581.164,70.568 ZM2581.444,41.527 C2310.822,56.617 2080.066,54.393 1809.741,34.090 C1633.474,20.844 1482.890,19.393 1306.440,29.240 C1038.298,44.182 819.779,42.075 552.018,21.969 C373.782,8.577 253.314,7.416 74.726,17.369 L1.226,8.099 C218.214,-3.999 400.419,-2.810 625.726,14.118 C838.119,30.070 994.979,33.232 1232.941,19.969 C1458.533,7.387 1668.145,10.071 1883.449,26.239 C2104.479,42.842 2277.991,45.082 2507.949,32.257 C2733.668,19.676 2881.130,21.097 3106.437,38.025 L3032.729,45.877 C2851.586,32.263 2762.948,31.408 2581.444,41.527 ZM625.167,72.199 C837.560,88.160 994.419,91.313 1232.381,78.052 C1457.973,65.468 1667.585,68.153 1882.889,84.321 C2103.920,100.931 2277.432,103.171 2507.390,90.339 C2733.109,77.758 2880.570,79.179 3105.878,96.107 L3032.170,103.958 C2851.026,90.352 2762.388,89.498 2580.884,99.609 C2310.262,114.698 2079.507,112.482 1809.181,92.171 C1632.915,78.933 1482.330,77.482 1305.880,87.321 C1037.738,102.270 819.219,100.165 551.459,80.051 C373.222,66.659 252.754,65.497 74.166,75.450 L0.667,66.181 C217.654,54.090 399.859,55.271 625.167,72.199 Z"/>
</svg>